<svg width="158" height="30" viewBox="0 0 158 30" fill="none" xmlns="http://www.w3.org/2000/svg">
<path d="M44.3441 25V10.816H49.2401C50.1361 10.816 50.8241 11.016 51.3041 11.416C51.8001 11.816 52.0481 12.408 52.0481 13.192V15.448C52.0481 16.232 51.8321 16.872 51.4001 17.368C50.9681 17.848 50.3281 18.112 49.4801 18.16C50.0241 18.208 50.4081 18.384 50.6321 18.688C50.8721 18.992 51.0881 19.464 51.2801 20.104L52.6481 25H50.1041L48.9761 20.272C48.8641 19.872 48.7361 19.52 48.5921 19.216C48.4481 18.912 48.2161 18.76 47.8961 18.76H46.7201V25H44.3441ZM46.7201 17.152H48.2561C48.8161 17.152 49.2081 17.008 49.4321 16.72C49.6721 16.432 49.7921 15.992 49.7921 15.4V13.6C49.7921 13.072 49.6801 12.688 49.4561 12.448C49.2481 12.208 48.9201 12.088 48.4721 12.088H46.7201V17.152ZM55.6479 25V12.448H53.3919V10.816H60.2559V12.448H57.9519V25H55.6479ZM64.1778 25.192C63.3618 25.192 62.6818 25.104 62.1378 24.928C61.6098 24.736 61.2098 24.376 60.9378 23.848C60.6818 23.32 60.5538 22.528 60.5538 21.472V15.904C60.5538 14.752 60.8418 13.968 61.4178 13.552C61.9938 13.12 62.8898 12.904 64.1058 12.904C65.3218 12.904 66.2178 13.12 66.7938 13.552C67.3698 13.968 67.6578 14.752 67.6578 15.904V19.072H62.8098V22.36C62.8098 22.952 62.8978 23.368 63.0738 23.608C63.2658 23.848 63.6258 23.968 64.1538 23.968C64.6338 23.968 64.9618 23.856 65.1378 23.632C65.3138 23.392 65.4018 22.968 65.4018 22.36V20.608H67.6578V21.448C67.6578 22.488 67.5218 23.28 67.2498 23.824C66.9938 24.368 66.6098 24.736 66.0978 24.928C65.5858 25.104 64.9458 25.192 64.1778 25.192ZM62.8098 18.016H65.4018V15.808C65.4018 15.264 65.3138 14.872 65.1378 14.632C64.9618 14.392 64.6178 14.272 64.1058 14.272C63.6098 14.272 63.2658 14.392 63.0738 14.632C62.8978 14.872 62.8098 15.264 62.8098 15.808V18.016ZM72.7794 25.192C71.9634 25.192 71.2834 25.104 70.7394 24.928C70.2114 24.752 69.8114 24.4 69.5394 23.872C69.2834 23.344 69.1554 22.56 69.1554 21.52V16.048C69.1554 14.848 69.4434 14.024 70.0194 13.576C70.5954 13.128 71.4914 12.904 72.7074 12.904C73.9234 12.904 74.8194 13.12 75.3954 13.552C75.9714 13.984 76.2594 14.768 76.2594 15.904V17.56H74.0034V15.808C74.0034 15.248 73.9154 14.848 73.7394 14.608C73.5634 14.368 73.2194 14.248 72.7074 14.248C72.2114 14.248 71.8674 14.368 71.6754 14.608C71.4994 14.848 71.4114 15.248 71.4114 15.808V22.216C71.4114 22.808 71.4994 23.224 71.6754 23.464C71.8674 23.704 72.2274 23.824 72.7554 23.824C73.2354 23.824 73.5634 23.712 73.7394 23.488C73.9154 23.248 74.0034 22.824 74.0034 22.216V20.344H76.2594V21.52C76.2594 22.544 76.1234 23.328 75.8514 23.872C75.5954 24.4 75.2034 24.752 74.6754 24.928C74.1634 25.104 73.5314 25.192 72.7794 25.192ZM77.9729 25V9.88H80.0849V14.272C80.2929 13.84 80.5809 13.504 80.9489 13.264C81.3329 13.024 81.8129 12.904 82.3889 12.904C83.1729 12.904 83.7569 13.04 84.1409 13.312C84.5409 13.584 84.8049 13.96 84.9329 14.44C85.0609 14.904 85.1249 15.44 85.1249 16.048V25H82.8689V16.216C82.8689 16.024 82.8609 15.832 82.8449 15.64C82.8289 15.432 82.7809 15.248 82.7009 15.088C82.6209 14.912 82.4849 14.776 82.2929 14.68C82.1169 14.568 81.8609 14.512 81.5249 14.512C81.2369 14.512 80.9969 14.56 80.8049 14.656C80.6129 14.736 80.4689 14.84 80.3729 14.968C80.2929 15.08 80.2449 15.176 80.2289 15.256V25H77.9729ZM90.4003 25L93.1603 10.816H96.3763L99.0883 25H96.5443L95.9683 22.12H93.3763L92.8483 25H90.4003ZM93.4243 20.944H95.9443L94.6963 13.048L93.4243 20.944ZM103.787 25.192C102.971 25.192 102.291 25.104 101.747 24.928C101.219 24.752 100.819 24.4 100.547 23.872C100.291 23.344 100.163 22.56 100.163 21.52V16.048C100.163 14.848 100.451 14.024 101.027 13.576C101.603 13.128 102.499 12.904 103.715 12.904C104.931 12.904 105.827 13.12 106.403 13.552C106.979 13.984 107.267 14.768 107.267 15.904V17.56H105.011V15.808C105.011 15.248 104.923 14.848 104.747 14.608C104.571 14.368 104.227 14.248 103.715 14.248C103.219 14.248 102.875 14.368 102.683 14.608C102.507 14.848 102.419 15.248 102.419 15.808V22.216C102.419 22.808 102.507 23.224 102.683 23.464C102.875 23.704 103.235 23.824 103.763 23.824C104.243 23.824 104.571 23.712 104.747 23.488C104.923 23.248 105.011 22.824 105.011 22.216V20.344H107.267V21.52C107.267 22.544 107.131 23.328 106.859 23.872C106.603 24.4 106.211 24.752 105.683 24.928C105.171 25.104 104.539 25.192 103.787 25.192ZM111.117 25.192C110.717 25.192 110.333 25.136 109.965 25.024C109.613 24.912 109.309 24.68 109.053 24.328C108.813 23.96 108.693 23.4 108.693 22.648V21.232C108.693 20.448 108.917 19.824 109.365 19.36C109.829 18.88 110.517 18.456 111.429 18.088C111.957 17.864 112.373 17.664 112.677 17.488C112.997 17.312 113.229 17.104 113.373 16.864C113.517 16.624 113.589 16.296 113.589 15.88V15.28C113.589 14.976 113.525 14.744 113.397 14.584C113.285 14.424 113.133 14.312 112.941 14.248C112.765 14.168 112.557 14.128 112.317 14.128C111.789 14.128 111.437 14.288 111.261 14.608C111.101 14.928 111.021 15.44 111.021 16.144V17.152H108.981V15.928C108.981 15.336 109.061 14.816 109.221 14.368C109.381 13.904 109.701 13.544 110.181 13.288C110.661 13.016 111.373 12.88 112.317 12.88C113.293 12.88 114.029 12.976 114.525 13.168C115.037 13.36 115.389 13.656 115.581 14.056C115.773 14.44 115.869 14.936 115.869 15.544V25H113.613V23.632C113.453 24.128 113.133 24.512 112.653 24.784C112.189 25.056 111.677 25.192 111.117 25.192ZM112.053 23.68C112.597 23.68 112.981 23.488 113.205 23.104C113.445 22.704 113.565 22.152 113.565 21.448V18.112C113.453 18.304 113.253 18.48 112.965 18.64C112.677 18.8 112.397 18.968 112.125 19.144C111.725 19.384 111.421 19.64 111.213 19.912C111.005 20.168 110.901 20.528 110.901 20.992V22.12C110.901 22.552 110.949 22.888 111.045 23.128C111.157 23.352 111.301 23.504 111.477 23.584C111.669 23.648 111.861 23.68 112.053 23.68ZM120.602 25.168C120.058 25.168 119.594 25.112 119.21 25C118.826 24.872 118.506 24.68 118.25 24.424C118.01 24.152 117.834 23.792 117.722 23.344C117.61 22.88 117.554 22.312 117.554 21.64V15.808C117.554 15.312 117.61 14.888 117.722 14.536C117.85 14.168 118.026 13.872 118.25 13.648C118.474 13.408 118.754 13.232 119.09 13.12C119.426 13.008 119.802 12.952 120.218 12.952C120.874 12.952 121.362 13.048 121.682 13.24C122.018 13.432 122.266 13.656 122.426 13.912V9.88H124.682V25H123.146L122.906 23.872C122.826 24.048 122.698 24.24 122.522 24.448C122.346 24.64 122.106 24.808 121.802 24.952C121.498 25.096 121.098 25.168 120.602 25.168ZM121.082 23.872C121.402 23.872 121.65 23.816 121.826 23.704C122.018 23.576 122.154 23.416 122.234 23.224C122.314 23.016 122.362 22.792 122.378 22.552C122.41 22.312 122.426 22.064 122.426 21.808V15.088C122.394 14.992 122.33 14.888 122.234 14.776C122.154 14.648 122.018 14.544 121.826 14.464C121.65 14.368 121.41 14.32 121.106 14.32C120.786 14.32 120.538 14.368 120.362 14.464C120.186 14.544 120.058 14.672 119.978 14.848C119.898 15.008 119.85 15.192 119.834 15.4C119.818 15.608 119.81 15.832 119.81 16.072V22.12C119.81 22.44 119.826 22.736 119.858 23.008C119.906 23.264 120.018 23.472 120.194 23.632C120.386 23.792 120.682 23.872 121.082 23.872ZM130.154 25.192C129.338 25.192 128.658 25.104 128.114 24.928C127.586 24.736 127.186 24.376 126.914 23.848C126.658 23.32 126.53 22.528 126.53 21.472V15.904C126.53 14.752 126.818 13.968 127.394 13.552C127.97 13.12 128.866 12.904 130.082 12.904C131.298 12.904 132.194 13.12 132.77 13.552C133.346 13.968 133.634 14.752 133.634 15.904V19.072H128.786V22.36C128.786 22.952 128.874 23.368 129.05 23.608C129.242 23.848 129.602 23.968 130.13 23.968C130.61 23.968 130.938 23.856 131.114 23.632C131.29 23.392 131.378 22.968 131.378 22.36V20.608H133.634V21.448C133.634 22.488 133.498 23.28 133.226 23.824C132.97 24.368 132.586 24.736 132.074 24.928C131.562 25.104 130.922 25.192 130.154 25.192ZM128.786 18.016H131.378V15.808C131.378 15.264 131.29 14.872 131.114 14.632C130.938 14.392 130.594 14.272 130.082 14.272C129.586 14.272 129.242 14.392 129.05 14.632C128.874 14.872 128.786 15.264 128.786 15.808V18.016ZM135.348 25V13.12H137.268L137.46 14.488C137.636 14.024 137.924 13.648 138.324 13.36C138.74 13.056 139.228 12.904 139.788 12.904C140.7 12.904 141.348 13.096 141.732 13.48C142.116 13.864 142.324 14.424 142.356 15.16H142.068C142.18 14.52 142.46 13.984 142.908 13.552C143.372 13.12 143.94 12.904 144.612 12.904C145.636 12.904 146.324 13.152 146.676 13.648C147.044 14.128 147.228 14.856 147.228 15.832V25H144.972V16.072C144.972 15.496 144.876 15.096 144.684 14.872C144.508 14.648 144.212 14.536 143.796 14.536C143.428 14.536 143.116 14.64 142.86 14.848C142.604 15.04 142.452 15.296 142.404 15.616V25H140.148V15.952C140.148 15.44 140.06 15.08 139.884 14.872C139.724 14.648 139.42 14.536 138.972 14.536C138.604 14.536 138.308 14.624 138.084 14.8C137.876 14.96 137.716 15.16 137.604 15.4V25H135.348ZM150.186 27.808C149.77 27.808 149.386 27.776 149.034 27.712C148.682 27.648 148.402 27.592 148.194 27.544V26.32C148.29 26.336 148.418 26.36 148.578 26.392C148.754 26.44 148.954 26.464 149.178 26.464C149.402 26.464 149.65 26.424 149.922 26.344C150.194 26.28 150.394 26.072 150.522 25.72C150.586 25.576 150.65 25.408 150.714 25.216C150.794 25.04 150.81 24.832 150.762 24.592L148.194 13.12H150.522L152.274 22.792L153.978 13.12H156.114L153.69 24.184C153.434 25.448 153.026 26.368 152.466 26.944C151.906 27.52 151.146 27.808 150.186 27.808Z" fill="#A74734"/>
<path d="M1.95708 8.77608C1.05392 9.37027 0.507274 10.6537 1.52927 12.1986C2.5275 13.7435 16.9543 24.1298 17.4771 24.415C18 24.7002 18.5467 24.7477 19.8776 23.7495C21.2324 22.7513 32.4743 14.8605 32.7595 14.6228C33.2111 14.2426 33.3299 13.3156 32.7595 12.8878C32.7595 12.8878 19.1409 22.3948 18.6893 22.7988C18.2377 23.1791 17.5484 22.5611 17.6911 21.753C17.8337 20.945 17.9287 20.8499 19.64 19.5902C21.375 18.3305 31.1909 11.3905 31.6187 11.0815C32.1178 10.725 32.1416 10.1308 31.3097 9.58417C30.1689 8.82362 17.7624 0.600125 17.3345 0.314918C16.9067 0.0297097 16.3363 -0.231731 15.4807 0.338685C14.6488 0.885333 3.64456 7.65902 1.95708 8.77608Z" fill="#FC8068"/>
<path d="M17.4771 25.437C17.1444 25.2469 10.8223 20.7073 6.21143 17.166V24.5339C6.21143 29.9053 22.4207 32.7811 27.7922 26.1738V19.1387C24.4885 21.4679 20.6382 24.2011 19.8776 24.7478C18.5467 25.7698 18.0238 25.7223 17.4771 25.437Z" fill="#FC8068"/>
<path d="M24.3459 17.3561C24.3459 17.3561 26.7464 18.4969 26.9365 23.0365L25.7719 22.7275L24.845 24.5813C24.441 19.5902 22.3019 18.8772 22.3019 18.8772L24.3459 17.3561Z" fill="#A74734"/>
</svg>
